<svg width="215" height="48" viewBox="0 0 215 48" fill="none" xmlns="http://www.w3.org/2000/svg">
<path d="M9.00098 38H3.11523V7.77148H12.3027L17.7988 31.54L23.2539 7.77148H32.3389V38H26.4531V17.5537C26.4531 16.9658 26.46 16.1455 26.4736 15.0928C26.4873 14.0264 26.4941 13.2061 26.4941 12.6318L20.7725 38H14.6406L8.95996 12.6318C8.95996 13.2061 8.9668 14.0264 8.98047 15.0928C8.99414 16.1455 9.00098 16.9658 9.00098 17.5537V38ZM82.2959 15.6465H88.8584L93.5137 32.1348L98.2715 15.6465H104.547L96.4873 38H90.3145L82.2959 15.6465ZM113.878 15.6465V38H107.951V15.6465H113.878ZM113.878 7.58691V12.9805H107.951V7.58691H113.878ZM138.692 31.4375C138.542 32.7637 137.852 34.1104 136.621 35.4775C134.707 37.6514 132.027 38.7383 128.582 38.7383C125.738 38.7383 123.229 37.8223 121.056 35.9902C118.882 34.1582 117.795 31.1777 117.795 27.0488C117.795 23.1797 118.772 20.2129 120.728 18.1484C122.696 16.084 125.246 15.0518 128.377 15.0518C130.236 15.0518 131.911 15.4004 133.401 16.0977C134.892 16.7949 136.122 17.8955 137.093 19.3994C137.968 20.7256 138.535 22.2637 138.795 24.0137C138.945 25.0391 139.007 26.5156 138.979 28.4434H123.681C123.763 30.6855 124.467 32.2578 125.793 33.1602C126.6 33.7207 127.57 34.001 128.705 34.001C129.908 34.001 130.886 33.6592 131.638 32.9756C132.048 32.6064 132.41 32.0938 132.725 31.4375H138.692ZM132.909 24.5879C132.813 23.043 132.342 21.874 131.494 21.0811C130.66 20.2744 129.621 19.8711 128.377 19.8711C127.023 19.8711 125.971 20.2949 125.219 21.1426C124.48 21.9902 124.016 23.1387 123.824 24.5879H132.909ZM164.45 24.793H149.767V32.5654H166.501V38H143.594V7.77148H165.763V13.124H149.767V19.543H164.45V24.793ZM180.036 32.1348L184.65 15.6465H190.864L183.194 37.6309C181.718 41.8691 180.549 44.4941 179.688 45.5059C178.826 46.5312 177.104 47.0439 174.52 47.0439C174 47.0439 173.583 47.0371 173.269 47.0234C172.954 47.0234 172.482 47.0029 171.854 46.9619V42.2861L172.592 42.3271C173.166 42.3545 173.713 42.334 174.232 42.2656C174.752 42.1973 175.189 42.04 175.545 41.7939C175.887 41.5615 176.201 41.0762 176.488 40.3379C176.789 39.5996 176.912 39.1484 176.857 38.9844L168.654 15.6465H175.155L180.036 32.1348ZM213.464 31.4375C213.313 32.7637 212.623 34.1104 211.393 35.4775C209.479 37.6514 206.799 38.7383 203.354 38.7383C200.51 38.7383 198.001 37.8223 195.827 35.9902C193.653 34.1582 192.566 31.1777 192.566 27.0488C192.566 23.1797 193.544 20.2129 195.499 18.1484C197.468 16.084 200.018 15.0518 203.148 15.0518C205.008 15.0518 206.683 15.4004 208.173 16.0977C209.663 16.7949 210.894 17.8955 211.864 19.3994C212.739 20.7256 213.307 22.2637 213.566 24.0137C213.717 25.0391 213.778 26.5156 213.751 28.4434H198.452C198.534 30.6855 199.238 32.2578 200.564 33.1602C201.371 33.7207 202.342 34.001 203.477 34.001C204.68 34.001 205.657 33.6592 206.409 32.9756C206.819 32.6064 207.182 32.0938 207.496 31.4375H213.464ZM207.681 24.5879C207.585 23.043 207.113 21.874 206.266 21.0811C205.432 20.2744 204.393 19.8711 203.148 19.8711C201.795 19.8711 200.742 20.2949 199.99 21.1426C199.252 21.9902 198.787 23.1387 198.596 24.5879H207.681Z" fill="#CA7900"/>
<path d="M54.5 24C54.5 27.6533 53.6506 30.887 52.3545 33.1553C51.0341 35.466 49.4385 36.5 48 36.5C46.5615 36.5 44.9659 35.466 43.6455 33.1553C42.3494 30.887 41.5 27.6533 41.5 24C41.5 20.3467 42.3494 17.113 43.6455 14.8447C44.9659 12.534 46.5615 11.5 48 11.5C49.4385 11.5 51.0341 12.534 52.3545 14.8447C53.6506 17.113 54.5 20.3467 54.5 24Z" stroke="#CA7900" stroke-width="3"/>
<ellipse cx="44.5" cy="24" rx="3.5" ry="6" fill="#CA7900"/>
<path d="M74.5 24C74.5 27.6533 73.6506 30.887 72.3545 33.1553C71.0341 35.466 69.4385 36.5 68 36.5C66.5615 36.5 64.9659 35.466 63.6455 33.1553C62.3494 30.887 61.5 27.6533 61.5 24C61.5 20.3467 62.3494 17.113 63.6455 14.8447C64.9659 12.534 66.5615 11.5 68 11.5C69.4385 11.5 71.0341 12.534 72.3545 14.8447C73.6506 17.113 74.5 20.3467 74.5 24Z" stroke="#CA7900" stroke-width="3"/>
<ellipse cx="64.5" cy="24" rx="3.5" ry="6" fill="#CA7900"/>
</svg>
