<svg width="22" height="22" viewBox="0 0 22 22" fill="none" xmlns="http://www.w3.org/2000/svg">
<path d="M9.24001 1.31982C5.11329 1.31982 1.76001 4.67311 1.76001 8.79982C1.76001 12.9265 5.11329 16.2798 9.24001 16.2798C10.8728 16.2798 12.3819 15.7539 13.6125 14.8636L19.4013 20.6386L20.6388 19.4011L14.9188 13.6673C16.0428 12.3576 16.72 10.6578 16.72 8.79982C16.72 4.67311 13.3667 1.31982 9.24001 1.31982ZM9.24001 2.19982C12.8906 2.19982 15.84 5.1492 15.84 8.79982C15.84 12.4504 12.8906 15.3998 9.24001 15.3998C5.58938 15.3998 2.64001 12.4504 2.64001 8.79982C2.64001 5.1492 5.58938 2.19982 9.24001 2.19982Z" fill="white"/>
</svg>
